<svg xmlns="http://www.w3.org/2000/svg" version="1.1" xmlns:xlink="http://www.w3.org/1999/xlink" xmlns:svgjs="http://svgjs.dev/svgjs" width="1500" height="363" viewBox="0 0 1500 363"><g transform="matrix(1,0,0,1,-0.9090909090909918,-0.9309569818695991)"><svg viewBox="0 0 396 96" data-background-color="#ffffff" preserveAspectRatio="xMidYMid meet" height="363" width="1500" xmlns="http://www.w3.org/2000/svg" xmlns:xlink="http://www.w3.org/1999/xlink"><g id="tight-bounds" transform="matrix(1,0,0,1,0.2400000000000091,0.2462034993374118)"><svg viewBox="0 0 395.52 95.50759300132515" height="95.50759300132515" width="395.52"><g><svg viewBox="0 0 505.12810192036625 121.9750434156104" height="95.50759300132515" width="395.52"><g transform="matrix(1,0,0,1,109.60810192036624,16.857621774516346)"><svg viewBox="0 0 395.52 88.25979986657771" height="88.25979986657771" width="395.52"><g id="textblocktransform"><svg viewBox="0 0 395.52 88.25979986657771" height="88.25979986657771" width="395.52" id="textblock"><g><svg viewBox="0 0 395.52 88.25979986657771" height="88.25979986657771" width="395.52"><g transform="matrix(1,0,0,1,0,0)"><svg width="395.52" viewBox="1.54 -39.79 219.56 48.989999999999995" height="88.25979986657771" data-palette-color="#ff0061"><path d="M26.64-8.79L30.64-8.79 30.64 0 8.89 0 8.89-8.79 12.89-8.79 12.89-30.25 9.45-30.25 8.4-23.56 1.54-23.56 1.54-38.84 38.09-38.84 38.09-23.56 31.25-23.56 30.2-30.25 26.64-30.25 26.64-8.79ZM59.49-7.35L59.49 0 42.28 0 42.28-7.35 45.38-7.35 45.38-29.86 42.28-29.86 42.28-36.5 57.13-38.11 57.13-22.34Q58.08-24.1 60.46-25.38 62.84-26.66 65.74-26.66L65.74-26.66Q69.99-26.66 72.17-24.16 74.34-21.66 74.34-17.14L74.34-17.14 74.34-7.35 77.44-7.35 77.44 0 62.57 0 62.57-15.94Q62.57-17.41 61.73-18.36 60.89-19.31 59.79-19.31L59.79-19.31Q58.54-19.31 57.83-18.46 57.13-17.6 57.13-16.16L57.13-16.16 57.13-7.35 59.49-7.35ZM98.12-7.35L98.12 0 79.37 0 79.37-7.35 82.51-7.35 82.51-18.6 79.37-18.6 79.37-25.2 94.21-26.66 94.21-22.41Q94.99-23.63 96.5-24.6 98.02-25.56 99.74-26.11 101.46-26.66 102.83-26.66L102.83-26.66 102.83-16.31Q99.97-17.26 98.12-17.26L98.12-17.26Q95.77-17.26 94.99-15.91 94.21-14.55 94.21-12.35L94.21-12.35 94.21-7.35 98.12-7.35ZM115.08-28.71L115.08-28.71Q112.03-28.71 110.05-30.15 108.07-31.59 108.07-34.3L108.07-34.3Q108.07-37.01 110.05-38.4 112.03-39.79 115.13-39.79L115.13-39.79Q118.23-39.79 120.17-38.43 122.11-37.06 122.11-34.3L122.11-34.3Q122.11-31.59 120.12-30.15 118.13-28.71 115.08-28.71ZM120.92-7.35L124.06-7.35 124.06 0 106.07 0 106.07-7.35 109.22-7.35 109.22-18.6 106.07-18.6 106.07-24.61 120.92-26.15 120.92-7.35ZM147.91-7.35L147.91 0 127.63 0 127.63-7.35 131.53-7.35 131.53-18.99 127.63-18.99 127.63-26.15 131.53-26.15 131.53-28.49Q131.53-38.35 140.22-38.35L140.22-38.35Q142.13-38.35 144.33-38 146.52-37.65 147.91-37.21L147.91-37.21 147.91-30Q146.08-30.3 145.38-30.3L145.38-30.3Q143.23-30.3 143.23-27.05L143.23-27.05 143.23-26.15 147.91-26.15 147.91-18.99 143.23-18.99 143.23-7.35 147.91-7.35ZM164.22 0.44L164.22 0.44Q154.82 0.44 154.82-9.35L154.82-9.35 154.82-18.99 150.92-18.99 150.92-26.15 154.82-26.15 154.82-31.74 166.52-34.35 166.52-26.15 171.2-26.15 171.2-18.99 166.52-18.99 166.52-10.21Q166.52-9.11 167.35-8.37 168.18-7.64 169.42-7.64L169.42-7.64Q170.32-7.64 171.2-7.79L171.2-7.79 171.2-1Q167.98 0.44 164.22 0.44ZM196.3 1.49L200.06 1.49 200.06 9.2 183.16 9.2 183.16 1.49 188.12 1.49 189.46-0.76 178.06-18.6 174.96-18.6 174.96-26.15 193.27-26.15 193.27-18.6 190.85-18.6 194.91-11.11 198.62-18.6 195.96-18.6 195.96-26.15 209.6-26.15 209.6-18.6 206.97-18.6 196.3 1.49ZM214.12 0.66L214.05 0.71Q211.21 0.71 209.21-1L209.21-1Q207.31-2.59 207.31-5.44L207.31-5.44Q207.31-8.25 209.21-9.79L209.21-9.79Q211.14-11.45 214.05-11.45L214.05-11.45Q217.19-11.45 219.15-9.79L219.15-9.79Q221.1-8.13 221.1-5.44L221.1-5.44Q221.1-2.71 219.1-1L219.1-1Q217.07 0.66 214.12 0.66L214.12 0.66Z" opacity="1" transform="matrix(1,0,0,1,0,0)" fill="#ff0061" class="wordmark-text-0" data-fill-palette-color="primary" id="text-0"></path></svg></g></svg></g></svg></g></svg></g><g><svg viewBox="0 0 88.77208140706404 121.9750434156104" height="121.9750434156104" width="88.77208140706404"><g><svg xmlns="http://www.w3.org/2000/svg" xmlns:xlink="http://www.w3.org/1999/xlink" version="1.1" x="0" y="0" viewBox="14.94 6.502 45.120000000000005 61.996" enable-background="new 0 0 75 75" xml:space="preserve" height="121.9750434156104" width="88.77208140706404" class="icon-icon-0" data-fill-palette-color="accent" id="icon-0"><path d="M29.268 64.127L15.254 63.285 15.297 62.617 29.374 63.463zM45.555 63.255L59.38 61.594 59.299 60.989 45.447 62.654zM59.425 61.929L45.614 63.588 46.346 67.651 60.06 66.72zM15.232 63.623L14.94 68.075 28.569 68.498 29.214 64.462zM29.907 9.772C30.161 10.873 29.4 10.365 29.4 10.365S29.079 9.389 29.819 6.844A221 221 0 0 1 25.802 6.685C25.794 6.708 25.127 8.678 25.379 9.771 25.429 9.987 25.439 10.139 25.424 10.247 28.01 10.522 31.906 10.807 36.906 10.797A129 129 0 0 0 36.777 7.029 800 800 0 0 1 30.276 6.858C30.119 7.366 29.698 8.868 29.907 9.772M25.533 44.186A0.169 0.169 0 0 1 25.512 43.85L25.946 43.789 25.555 42.389 25.092 42.491 25.056 42.494A0.168 0.168 0 0 1 25.021 42.16L25.464 42.064 25.098 40.752 24.513 41.064A0.2 0.2 0 0 1 24.433 41.083 0.17 0.17 0 0 1 24.284 40.994 0.17 0.17 0 0 1 24.354 40.764L25.006 40.417 24.821 39.758 23.391 40.141 23.51 40.422A0.17 0.17 0 0 1 23.42 40.643 0.17 0.17 0 0 1 23.198 40.554L23.062 40.23 21.639 40.614 21.924 41.151A0.17 0.17 0 0 1 21.854 41.379 0.16 0.16 0 0 1 21.774 41.4 0.17 0.17 0 0 1 21.625 41.309L21.304 40.704 20.044 41.043 20.259 42.179 20.751 41.965A0.17 0.17 0 0 1 20.974 42.053 0.17 0.17 0 0 1 20.886 42.277L20.323 42.52 20.597 43.975 21.233 43.814A0.167 0.167 0 0 1 21.439 43.936 0.166 0.166 0 0 1 21.317 44.14L20.661 44.309 20.873 45.435 21.202 45.257A0.168 0.168 0 1 1 21.363 45.553L20.939 45.784 21.079 46.524 22.58 46.126 22.511 45.687A0.17 0.17 0 0 1 22.653 45.495 0.17 0.17 0 0 1 22.846 45.635L22.909 46.041 24.471 45.627 24.225 45.132A0.17 0.17 0 1 1 24.529 44.982L24.805 45.539 26.322 45.137 26.039 44.122 25.559 44.187C25.548 44.185 25.541 44.186 25.533 44.186M59.255 60.652L45.387 62.32 42.944 48.743 39.22 36.384 36.257 29.104 33.718 36.638 32.363 44.765 29.428 63.127 15.32 62.279 15.857 54.075 17.127 40.871 18.142 26.31 19.75 16.829S21.358 9.888 21.867 8.703 23.306 6.502 23.306 6.502C23.761 6.566 24.622 6.627 25.761 6.684H25.338C24.725 8.72 24.776 9.79 24.835 10.184 22.864 9.959 21.806 9.758 21.782 9.753L21.718 10.086C21.756 10.093 24.404 10.597 29.156 10.905 28.88 12.435 28.157 13.608 27.003 14.39 24.359 16.183 20.295 15.363 20.255 15.354L20.186 15.686C20.268 15.704 21.222 15.896 22.499 15.896 23.919 15.896 25.736 15.657 27.191 14.671 28.433 13.829 29.209 12.569 29.497 10.926H29.493C31.59 11.055 34.075 11.144 36.913 11.137 36.991 15.319 36.953 21.943 36.256 28.776L36.234 28.993 36.45 28.96C36.588 28.939 39.829 28.377 40.088 22.302 40.276 17.871 40.34 15.046 40.234 11.14 42.215 11.151 43.801 11.18 45.08 11.207 45.217 11.832 46.477 16.859 51.48 16.859 51.74 16.859 52.014 16.842 52.294 16.814L52.511 17.59 55.728 34.69 56.822 42.285zM19.22 34.846L19.093 35.566 20.399 35.701 20.32 36.078A0.11 0.11 0 0 0 20.388 36.202C20.393 36.203 20.398 36.206 20.405 36.207A0.11 0.11 0 0 0 20.534 36.123L20.617 35.724 21.749 35.841 21.778 36.137A0.11 0.11 0 0 0 21.848 36.227 0.11 0.11 0 0 0 21.995 36.115L21.971 35.864 23.236 35.995 23.322 35.037 23.749 35.136A0.11 0.11 0 0 0 23.879 35.054 0.11 0.11 0 0 0 23.798 34.924L23.342 34.819 23.427 33.864 23.828 33.925A0.11 0.11 0 0 0 23.953 33.834 0.11 0.11 0 0 0 23.861 33.709L23.447 33.647 23.534 32.684 24 32.622A0.11 0.11 0 0 0 24.094 32.5 0.11 0.11 0 0 0 23.972 32.406L23.552 32.461 23.614 31.773 22.303 31.642 22.281 31.048A0.11 0.11 0 0 0 22.063 31.057L22.084 31.621 21.113 31.524 21.041 30.958A0.107 0.107 0 0 0 20.92 30.864 0.11 0.11 0 0 0 20.826 30.987L20.891 31.503 19.831 31.398 19.636 32.498 19.321 32.513A0.11 0.11 0 0 0 19.217 32.627 0.11 0.11 0 0 0 19.331 32.731L19.597 32.718 19.44 33.6 18.91 33.541A0.109 0.109 0 0 0 18.885 33.757L19.401 33.815 19.258 34.622 18.929 34.667A0.11 0.11 0 0 0 18.836 34.789 0.11 0.11 0 0 0 18.905 34.876 0.1 0.1 0 0 0 18.958 34.883zM27.367 43.768A0.17 0.17 0 0 0 27.176 43.622L26.454 43.72 26.053 42.283 26.671 42.15A0.17 0.17 0 0 0 26.801 41.949 0.17 0.17 0 0 0 26.6 41.818L25.962 41.955 25.558 40.504 26.206 40.158A0.169 0.169 0 1 0 26.048 39.859L25.465 40.17 25.176 39.135 23.193 39.667 22.834 38.814A0.17 0.17 0 0 0 22.612 38.723 0.17 0.17 0 0 0 22.521 38.945L22.863 39.756 21.395 40.152 20.978 39.367A0.17 0.17 0 1 0 20.679 39.525L21.06 40.243 19.458 40.674 19.78 42.385 19.329 42.579A0.17 0.17 0 0 0 19.397 42.906 0.2 0.2 0 0 0 19.464 42.891L19.844 42.726 20.104 44.1 19.299 44.307A0.167 0.167 0 0 0 19.177 44.511 0.17 0.17 0 0 0 19.383 44.634L20.167 44.433 20.403 45.687 19.949 45.934A0.167 0.167 0 0 0 19.882 46.163 0.16 0.16 0 0 0 20.03 46.252 0.2 0.2 0 0 0 20.111 46.231L20.468 46.038 20.679 47.155 22.658 46.634 22.75 47.226A0.17 0.17 0 0 0 22.917 47.369L22.943 47.367A0.17 0.17 0 0 0 23.085 47.174L22.987 46.547 24.699 46.092 24.905 46.507A0.17 0.17 0 0 0 25.056 46.601 0.2 0.2 0 0 0 25.131 46.584 0.17 0.17 0 0 0 25.208 46.357L25.033 46.004 26.948 45.496 26.546 44.053 27.222 43.961A0.176 0.176 0 0 0 27.367 43.768M19.959 34.637A0.11 0.11 0 0 1 19.865 34.759L19.558 34.801 19.474 35.278 20.465 35.381 20.524 35.101A0.11 0.11 0 0 1 20.652 35.018 0.11 0.11 0 0 1 20.736 35.147L20.682 35.404 21.715 35.511 21.679 35.158A0.11 0.11 0 0 1 21.777 35.039 0.11 0.11 0 0 1 21.896 35.136L21.935 35.533 22.937 35.637 22.998 34.963 22.695 34.893 22.68 34.889A0.11 0.11 0 0 1 22.613 34.763 0.11 0.11 0 0 1 22.743 34.681L23.017 34.744 23.101 33.815 22.8 33.769 22.778 33.763A0.109 0.109 0 0 1 22.833 33.554L23.121 33.598 23.199 32.726 22.778 32.78A0.107 0.107 0 0 1 22.657 32.686 0.11 0.11 0 0 1 22.751 32.564L23.221 32.503 23.261 32.065 22.316 31.971 22.323 32.167A0.11 0.11 0 0 1 22.218 32.28 0.11 0.11 0 0 1 22.106 32.175L22.098 31.95 21.156 31.857 21.206 32.244A0.11 0.11 0 0 1 21.112 32.365 0.1 0.1 0 0 1 21.059 32.36 0.11 0.11 0 0 1 20.99 32.273L20.934 31.836 20.101 31.753 19.972 32.483 20.316 32.467A0.11 0.11 0 0 1 20.326 32.685L19.932 32.704 19.766 33.64 20.184 33.687A0.109 0.109 0 0 1 20.16 33.903L19.728 33.854 19.6 34.579 19.837 34.546A0.105 0.105 0 0 1 19.959 34.637M46.699 14.051C48.006 15.891 49.853 16.707 52.202 16.483L50.664 10.967 50.703 11.131C50.23 11.244 49.662 11.281 48.793 11.281 48.185 11.281 47.431 11.262 46.459 11.239L45.428 11.215A8.5 8.5 0 0 0 46.699 14.051M39.748 22.289C39.543 27.153 37.33 28.315 36.617 28.565 37.617 18.524 37.215 8.983 37.116 7.038 38.003 7.058 38.884 7.076 39.744 7.094 40.027 13.443 39.993 16.484 39.748 22.289M39.387 8.403A0.888 0.888 0 1 0 37.613 8.303 0.888 0.888 0 1 0 39.387 8.403M49.182 10.851S49.094 10.909 48.988 10.943C49.716 10.938 50.213 10.901 50.62 10.805L49.633 7.264 48.739 7.251C49.512 9.854 49.182 10.851 49.182 10.851M48.675 10.257C48.9 9.281 48.392 7.61 48.275 7.244 47.307 7.229 45.881 7.207 44.191 7.177 44.991 9.839 44.654 10.851 44.654 10.851L44.636 10.861C45.327 10.875 45.936 10.89 46.468 10.902 47.418 10.925 48.156 10.943 48.751 10.944 48.637 10.886 48.57 10.707 48.675 10.257M44.145 10.257C44.4 9.157 43.72 7.169 43.72 7.169H43.726C42.598 7.149 41.366 7.126 40.083 7.101 40.145 8.468 40.19 9.682 40.223 10.804 41.749 10.813 43.037 10.831 44.135 10.852 44.084 10.749 44.073 10.57 44.145 10.257" fill="#ff0061" data-fill-palette-color="accent"></path></svg></g></svg></g></svg></g><defs></defs></svg><rect width="395.52" height="95.50759300132515" fill="none" stroke="none" visibility="hidden"></rect></g></svg></g></svg>